<?xml version="1.0" standalone="no"?>
<!DOCTYPE svg PUBLIC "-//W3C//DTD SVG 1.1//EN" "http://www.w3.org/Graphics/SVG/1.1/DTD/svg11.dtd" >
<!--
2013-9-30: Created.
-->
<svg>
<metadata>
Created by iconfont
</metadata>
<defs>

<font id="iconfont" horiz-adv-x="1024" >
  <font-face
    font-family="iconfont"
    font-weight="500"
    font-stretch="normal"
    units-per-em="1024"
    ascent="896"
    descent="-128"
  />
    <missing-glyph />
    
    <glyph glyph-name="x" unicode="x" horiz-adv-x="1001"
d="M281 543q-27 -1 -53 -1h-83q-18 0 -36.5 -6t-32.5 -18.5t-23 -32t-9 -45.5v-76h912v41q0 16 -0.5 30t-0.5 18q0 13 -5 29t-17 29.5t-31.5 22.5t-49.5 9h-133v-97h-438v97zM955 310v-52q0 -23 0.5 -52t0.5 -58t-10.5 -47.5t-26 -30t-33 -16t-31.5 -4.5q-14 -1 -29.5 -0.5
t-29.5 0.5h-32l-45 128h-439l-44 -128h-29h-34q-20 0 -45 1q-25 0 -41 9.5t-25.5 23t-13.5 29.5t-4 30v167h911zM163 247q-12 0 -21 -8.5t-9 -21.5t9 -21.5t21 -8.5q13 0 22 8.5t9 21.5t-9 21.5t-22 8.5zM316 123q-8 -26 -14 -48q-5 -19 -10.5 -37t-7.5 -25t-3 -15t1 -14.5
t9.5 -10.5t21.5 -4h37h67h81h80h64h36q23 0 34 12t2 38q-5 13 -9.5 30.5t-9.5 34.5q-5 19 -11 39h-368zM336 498v228q0 11 2.5 23t10 21.5t20.5 15.5t34 6h188q31 0 51.5 -14.5t20.5 -52.5v-227h-327z" />
    

    
    <glyph glyph-name="shouji" unicode="&#59102;" d="M740.854245 646.897731 278.138718 646.897731 278.138718 701.926022c0 6.458085 5.247514 11.715833 11.7056 11.715833l439.305351 0c6.458085 0 11.7056-5.257747 11.7056-11.715833L740.855268 646.897731zM740.854245 85.91411 278.138718 85.91411 278.138718 613.867454l462.715527 0L740.854245 85.91411zM740.854245-100.473951c0-6.447852-5.247514-11.695367-11.7056-11.695367l-439.305351 0c-6.458085 0-11.7056 5.247514-11.7056 11.695367L278.137695 52.882809l462.715527 0L740.853222-100.473951zM729.148645 746.672132l-439.305351 0c-24.711821 0-44.756343-20.044522-44.756343-44.74611l0-802.39895c0-24.722054 20.044522-44.725644 44.756343-44.725644l439.305351 0c24.711821 0 44.756343 20.00359 44.756343 44.725644L773.904988 701.926022C773.904988 726.62761 753.86149 746.672132 729.148645 746.672132zM459.919854-13.066205l99.153254 0 0-33.040511-99.153254 0 0 33.040511Z"  horiz-adv-x="1024" />

    
    <glyph glyph-name="liaotian" unicode="&#58882;" d="M511.465834-14.724984c-27.833929 0-54.966892 2.515287-81.34568 6.885827 0 0-112.176872-106.204857-162.801876-136.923486-13.94357-8.461719-42.461067 21.230534-42.461067 21.230534L224.857211 67.540647C125.447107 137.334223 76.244498 245.890638 76.244498 366.091254c0 210.323193 194.856943 380.815215 435.221336 380.815215 240.36337 0 435.219289-170.492022 435.219289-380.815215C946.685123 155.772154 751.829204-14.724984 511.465834-14.724984zM749.243309 279.845984c-38.694277 0-70.061682 33.264615-70.061682 74.306356 0 41.037648 31.368428 74.302263 70.061682 74.302263 38.696324 0 70.059636-33.264615 70.059636-74.302263C819.302945 313.110599 787.939633 279.845984 749.243309 279.845984zM511.463788 279.845984c-38.694277 0-70.059636 33.264615-70.059636 74.306356 0 41.037648 31.366382 74.302263 70.059636 74.302263 38.694277 0 70.059636-33.264615 70.059636-74.302263C581.523423 313.110599 550.158065 279.845984 511.463788 279.845984zM273.682219 279.845984c-38.692231 0-70.059636 33.264615-70.059636 74.306356 0 41.037648 31.368428 74.302263 70.059636 74.302263 38.695301 0 70.061682-33.264615 70.061682-74.302263C343.743902 313.110599 312.378543 279.845984 273.682219 279.845984z"  horiz-adv-x="1024" />

    
    <glyph glyph-name="liebiao" unicode="&#58880;" d="M759.549026 669.520985 580.902276 669.520985c-2.843768 13.69286-14.976086 23.983227-29.512151 23.983227l-2.249227 0 0 7.362688c0 25.417903-20.678972 46.096874-46.096874 46.096874l-40.200584 0c-25.417903 0-46.096874-20.678972-46.096874-46.096874l0-7.362688-2.857071 0c-14.537088 0-26.668383-10.290367-29.512151-23.983227L205.730595 669.520985c-28.349675 0-51.413973-23.064298-51.413973-51.41295l0-714.400756c0-28.349675 23.064298-51.413973 51.413973-51.413973l553.818431 0c28.349675 0 51.41295 23.064298 51.41295 51.413973l0 714.400756C810.961976 646.456686 787.898701 669.520985 759.549026 669.520985zM448.64916 700.8669c0 7.826246 6.367011 14.193257 14.193257 14.193257l40.200584 0c7.826246 0 14.193257-6.367011 14.193257-14.193257l0-7.362688-68.587098 0L448.64916 700.8669zM768.42416-96.293745c0-4.894474-3.981684-8.876158-8.875135-8.876158L205.730595-105.169903c-4.894474 0-8.876158 3.981684-8.876158 8.876158l0 714.400756c0 4.894474 3.981684 8.876158 8.876158 8.876158L383.743918 626.983169l0-0.63445c0-16.648169 13.496385-30.144554 30.144554-30.144554l137.500631 0c16.648169 0 30.144554 13.496385 30.144554 30.144554l0 0.63445 178.014346 0c4.89345 0 8.875135-3.981684 8.875135-8.876158L768.423137-96.293745zM675.645081 450.821007 447.548082 450.821007c-10.130731 0-18.343787-8.213056-18.343787-18.343787 0-10.130731 8.213056-18.343787 18.343787-18.343787l228.096998 0c10.130731 0 18.343787 8.213056 18.343787 18.343787C693.988868 442.607952 685.775812 450.821007 675.645081 450.821007zM675.645081 318.359137 447.548082 318.359137c-10.130731 0-18.343787-8.213056-18.343787-18.343787s8.213056-18.343787 18.343787-18.343787l228.096998 0c10.130731 0 18.343787 8.213056 18.343787 18.343787S685.775812 318.359137 675.645081 318.359137zM675.645081 179.656121 447.548082 179.656121c-10.130731 0-18.343787-8.213056-18.343787-18.343787 0-10.130731 8.213056-18.343787 18.343787-18.343787l228.096998 0c10.130731 0 18.343787 8.213056 18.343787 18.343787C693.988868 171.444089 685.775812 179.656121 675.645081 179.656121zM675.645081 47.19425 447.548082 47.19425c-10.130731 0-18.343787-8.213056-18.343787-18.343787s8.213056-18.343787 18.343787-18.343787l228.096998 0c10.130731 0 18.343787 8.213056 18.343787 18.343787S685.775812 47.19425 675.645081 47.19425zM367.083469 477.99081l-45.694715-45.694715-28.027333 28.027333c-4.750187 4.750187-12.452613 4.750187-17.202801 0-4.750187-4.750187-4.750187-12.452613 0-17.202801l36.481889-36.481889c2.411933-2.411933 5.586229-3.593851 8.747221-3.555989 3.162016-0.037862 6.335289 1.143033 8.747221 3.555989l54.150294 54.150294c4.750187 4.750187 4.750187 12.452613 0 17.202801C379.536083 482.740998 371.833657 482.740998 367.083469 477.99081zM367.083469 336.872792l-45.694715-45.694715-28.027333 28.027333c-4.750187 4.750187-12.452613 4.750187-17.202801 0-4.750187-4.750187-4.750187-12.452613 0-17.202801l36.481889-36.481889c2.411933-2.411933 5.586229-3.593851 8.747221-3.555989 3.162016-0.037862 6.335289 1.143033 8.747221 3.555989l54.150294 54.150294c4.750187 4.750187 4.750187 12.452613 0 17.202801C379.536083 341.62298 371.833657 341.62298 367.083469 336.872792zM330.222957 162.066511m-29.776164 0a29.098 29.098 0 1 0 59.552328 0 29.098 29.098 0 1 0-59.552328 0ZM330.222957 24.883105m-29.776164 0a29.098 29.098 0 1 0 59.552328 0 29.098 29.098 0 1 0-59.552328 0Z"  horiz-adv-x="1024" />

    
    <glyph glyph-name="kefu" unicode="&#58881;" d="M224.080968 12.224912 192.089965 12.224912c-109.441223 0-191.946021 82.504798-191.946021 191.946021s82.504798 191.946021 191.946021 191.946021l31.991004 0L224.080968 12.224912zM160.098961 328.615937C102.963029 315.499625 64.125951 267.161219 64.125951 204.170933s38.837078-111.296701 95.973011-124.476995L160.098961 328.615937zM831.910035 12.224912l-31.991004 0L799.919032 396.116954l31.991004 0c109.441223 0 191.946021-82.504798 191.946021-191.946021S941.351258 12.224912 831.910035 12.224912M863.901039 328.615937l0-248.858016c57.135932 13.116311 95.973011 61.454718 95.973011 124.445004C959.874049 267.225201 921.036971 315.467634 863.901039 328.615937M863.901039-147.730106l0 63.982007c15.93152 0 31.991004 9.949202 31.991004 31.991004l63.982007 0C959.874049-106.461711 918.605655-147.730106 863.901039-147.730106M735.937025-83.748099l127.964014 0 0-63.982007-127.964014 0 0 63.982007ZM656.759291-212.000032c-52.881129 0-95.973011 43.059891-95.973011 95.973011 0 52.881129 43.091882 95.973011 95.973011 95.973011 52.91312 0 95.973011-43.091882 95.973011-95.973011C752.732302-168.940141 709.768384-212.000032 656.759291-212.000032M656.759291-84.036018c-17.627043 0-31.991004-14.33197-31.991004-31.991004s14.363961-31.991004 31.991004-31.991004c17.691025 0 31.991004 14.33197 31.991004 31.991004S674.450316-84.036018 656.759291-84.036018M863.901039 459.907015l-63.982007 0C799.919032 618.774339 670.771351 748.017993 512 748.017993s-287.919032-129.243654-287.919032-288.110978L160.098961 459.907015C160.098961 654.028425 317.974564 812 512 812 705.993445 812 863.901039 654.028425 863.901039 459.907015"  horiz-adv-x="1024" />

    
    <glyph glyph-name="xiala" unicode="&#58883;" d="M513.721201 746.508403c-246.408039 0-446.161503-199.753463-446.161503-446.161503s199.753463-446.161503 446.161503-446.161503 446.161503 199.753463 446.161503 446.161503S760.12924 746.508403 513.721201 746.508403zM513.721201-108.634818c-225.874377 0-408.981718 183.107341-408.981718 408.981718S287.846824 709.328619 513.721201 709.328619s408.981718-183.107341 408.981718-408.981718S739.595578-108.634818 513.721201-108.634818zM532.311605 133.860099 532.311605 504.837248 495.130797 504.837248 495.130797 140.736717 353.699648 282.168889 327.408865 255.878107 504.014118 79.272853 517.15951 66.127462 530.304901 79.272853 706.910155 255.878107 680.620395 282.168889Z"  horiz-adv-x="1024" />

    
    <glyph glyph-name="pinglun" unicode="&#58898;" d="M949.570847 683.326273l-41.801035-41.517579L768.565377 780.156622l41.801035 41.459251c15.340383 15.283078 39.522132 16.084327 53.892421 1.768273l87.024006-86.454024C965.710432 722.617138 964.91123 698.606281 949.570847 683.326273L949.570847 683.326273zM580.373227 316.405509 441.169815 454.755484l306.238706 304.299541 139.205459-138.348951L580.373227 316.405509 580.373227 316.405509zM560.984644 297.130514l-194.863083-55.314817 55.659671 193.666838L560.984644 297.130514 560.984644 297.130514zM236.551554 717.881276c-48.13223 0-87.081311-38.949081-87.081311-87.024006l0-522.372232c0-48.062646 38.962384-87.026052 87.026052-87.026052l522.485819 0c48.063669 0 87.028099 38.963407 87.028099 87.028099L846.010213 456.751954l87.079264 87.028099 0-464.321094c0-80.124875-64.954361-145.078213-145.078213-145.078213L207.468169-65.619254c-80.124875 0-145.078213 64.954361-145.078213 145.078213L62.389956 659.885398c0 80.124875 64.954361 145.078213 145.078213 145.078213l464.435705 0-87.083357-87.083357L236.551554 717.880253 236.551554 717.881276z"  horiz-adv-x="1024" />

    
    <glyph glyph-name="gamebar" unicode="&#58884;" d="M152.704 64h-2.688c-31.616 0.832-55.424 18.368-70.848 52.288-15.552 34.432-17.664 70.656-18.496 101.824 0 1.92 0 4.032 0 6.080v2.88c1.408 72.128 14.848 144.192 41.088 220.032 22.528 65.344 49.856 118.72 83.648 163.2 28.416 37.632 56.96 62.592 89.728 78.272 38.336 18.496 72.768 20.16 105.792 5.376 12.992-5.888 26.048-11.2 39.104-16.448 9.92-4.032 19.776-8 29.568-12.16 43.136-18.496 87.232-17.6 132.608 2.688 8 3.52 16.064 6.72 24.192 10.112 10.944 4.544 21.952 9.152 32.768 14.208 38.592 18.048 78.208 15.296 121.088-8.576 35.584-19.84 65.792-49.856 95.104-94.464 40.448-60.864 70.016-132.864 90.56-219.84 13.696-57.984 19.2-112.512 16.96-166.656-1.472-33.024-7.040-59.392-17.536-83.136-19.584-44.288-51.456-53.568-74.752-53.568v0c-8.512 0-17.664 1.216-27.2 3.584-23.808 5.824-46.656 17.216-71.808 35.712-16.576 12.288-32.832 24.832-49.152 37.376-16.32 12.608-32.704 25.216-49.28 37.504-31.168 23.040-69.248 47.936-114.688 57.344-71.68 14.592-136.768 0.128-192.256-42.944-19.968-15.488-39.040-33.216-57.472-50.368-8.448-7.808-16.896-15.616-25.408-23.296-24.576-22.016-55.168-45.44-95.872-53.248-12.672-2.624-24-3.776-34.752-3.776zM335.488 676.224c-15.040 0-30.848-4.096-48.32-12.608-28.736-13.76-54.080-36.032-79.744-70.016-32-42.176-58.048-93.056-79.616-155.584-25.216-73.152-38.144-142.272-39.488-211.584v-7.488c0.896-35.52 3.968-64.512 16-91.328 11.072-24.384 25.408-35.52 46.4-36.032l2.048-13.824v13.824c8.832 0 18.752 1.088 29.568 3.072 33.984 6.592 60.8 27.264 82.56 46.72 8.448 7.616 16.768 15.232 25.024 22.976 18.944 17.536 38.464 35.712 59.392 51.968 61.824 48 134.848 64.32 214.656 48.192 50.688-10.56 91.904-37.248 125.504-62.144 16.768-12.416 33.28-25.28 49.792-37.888 16.128-12.48 32.256-24.896 48.64-36.992 22.080-16.32 41.792-26.24 61.952-31.232 7.424-1.728 14.336-2.688 20.608-2.688v0c22.656 0 38.336 11.776 49.536 37.12 9.088 20.48 13.952 43.776 15.168 73.152 2.176 51.584-3.136 103.68-16.192 159.232-19.776 83.648-48.128 152.768-86.72 210.944-26.816 40.768-53.888 67.904-85.504 85.504-35.2 19.648-65.28 22.080-96 7.744-11.072-5.248-22.528-9.984-33.92-14.656-7.936-3.328-15.744-6.592-23.488-10.048-52.224-23.296-104.512-24.32-154.688-2.752-9.536 4.16-19.264 8.192-28.928 11.968-13.504 5.504-26.944 10.944-40.192 16.96-11.2 5.056-22.336 7.488-34.048 7.488zM725.824 318.464c-11.392 0-21.632 4.288-29.248 12.032-7.616 7.616-11.712 17.792-11.584 28.48 0.448 22.080 18.624 39.808 40.576 39.808h0.064c22.016 0 39.936-18.048 39.936-40.256 0.128-22.080-17.344-39.808-39.744-40.064zM725.696 385.024v-13.76c-6.976 0-12.928-5.824-13.056-12.672-0.064-3.264 1.28-6.336 3.584-8.768 2.496-2.432 5.76-3.84 9.216-3.84 7.36 0.064 12.736 5.504 12.736 12.48 0 6.912-5.632 12.736-12.352 12.736v13.824zM327.104 384.96c-21.76 0-41.92 8.384-57.088 23.552-15.040 15.040-23.296 35.072-23.232 56.32 0.128 43.84 35.84 79.744 79.616 80.256h0.832c43.776 0 79.616-35.904 80-79.744 0.128-21.504-8.064-41.664-23.040-56.832-15.168-15.232-35.392-23.552-57.088-23.552zM327.232 531.264l-0.512-13.76c-28.736-0.256-52.224-24-52.288-52.736 0-13.888 5.312-26.944 15.168-36.736 20.16-20.16 55.552-19.648 75.008 0 9.792 9.792 15.104 22.976 15.040 36.992-0.192 28.864-23.744 52.48-52.416 52.48v13.76zM804.928 398.272c-22.464 0.128-40.32 18.112-40.192 40.192 0 22.016 18.112 40 40.32 40h1.344c21.76-0.576 39.296-18.944 38.912-41.088-0.384-21.952-18.176-39.104-40.384-39.104zM805.056 464.704v-13.824c-6.784 0-12.736-5.888-12.736-12.544-0.064-6.912 5.504-12.48 12.544-12.48 7.36 0 12.736 4.992 12.864 12.032 0.128 6.976-5.312 12.8-12.16 12.992l-0.512 13.824zM644.224 398.272c-11.2 0-21.504 4.224-29.184 12.096-7.552 7.808-11.648 17.92-11.328 28.736 0.576 21.696 18.752 39.296 40.576 39.296h0.128c10.624 0 20.608-4.16 28.16-11.776 7.616-7.68 11.84-17.856 11.712-28.672-0.064-22.272-17.728-39.616-40.064-39.68zM644.288 450.88c-6.848 0-12.8-5.76-12.992-12.48-0.064-3.2 1.152-6.336 3.52-8.768 7.488-7.616 21.888-1.92 21.952 8.448 0 3.52-1.28 6.656-3.776 9.152-2.304 2.368-5.376 3.712-8.576 3.712l-0.128 0zM725.248 477.824c-22.080 0.128-40.128 18.048-40.256 40.064 0 10.624 4.16 20.672 11.84 28.288 7.744 7.808 17.92 12.032 28.608 12.032h0.96c21.888-0.512 39.552-18.816 39.232-40.96-0.192-22.144-17.984-39.424-40.384-39.424zM725.376 544.448v-13.824c-3.328 0-6.528-1.344-9.024-3.904-2.496-2.496-3.84-5.632-3.84-8.832 0-6.848 5.76-12.48 12.736-12.48 7.168 0 12.672 5.184 12.736 12.032 0 7.040-5.44 12.928-12.288 13.12l-0.32 13.888z"  horiz-adv-x="1024" />

    
    <glyph glyph-name="fenxiang" unicode="&#59030;" d="M807.084669 524.5552c85.283362 0 154.525376 69.249177 154.525376 154.529469 0 85.096097-69.242014 154.525376-154.525376 154.525376s-154.539702-69.429279-154.539702-154.525376c0-7.658424 0.717338-14.954597 1.785669-22.257933L329.428871 531.858536c-28.29851 29.9051-68.180845 48.773843-112.51354 48.773843-85.085864 0-154.525376-69.249177-154.525376-154.525376s69.439512-154.532539 154.525376-154.532539c33.289174 0 64.083527 10.68434 89.198531 28.484751l220.211401-146.691967c-9.074679-19.766183-14.226003-41.481763-14.226003-64.448848 0-85.276199 69.234851-154.529469 154.51105-154.529469 85.290525 0 154.539702 69.25327 154.539702 154.529469S751.899812 243.4448 666.609287 243.4448c-41.99751 0-80.102363-16.912182-107.87387-44.149523L345.989035 341.182822c16.025998 24.394596 25.634844 53.589522 25.634844 84.924181 0 20.292162-4.098341 39.692001-11.211343 57.500599l311.904753 119.995955C698.844455 556.425048 749.228983 524.5552 807.084669 524.5552L807.084669 524.5552zM216.915331 327.834816c-54.123688 0-98.265024 43.969421-98.265024 98.272187 0 54.298673 44.141336 98.448196 98.265024 98.448196 54.30686 0 98.448196-44.149523 98.448196-98.448196C315.363528 371.80526 271.221168 327.834816 216.915331 327.834816L216.915331 327.834816zM666.609287 187.191612c54.123688 0 98.280374-44.149523 98.280374-98.272187 0-54.298673-44.156686-98.455359-98.280374-98.455359-54.284347 0-98.441033 44.156686-98.441033 98.455359C568.168254 143.042089 612.32494 187.191612 666.609287 187.191612L666.609287 187.191612zM807.084669 777.356856c54.298673 0 98.455359-44.152593 98.455359-98.272187 0-54.295604-44.156686-98.452289-98.455359-98.452289-54.116525 0-98.265024 44.156686-98.265024 98.452289C708.819644 733.204264 752.968144 777.356856 807.084669 777.356856L807.084669 777.356856z"  horiz-adv-x="1024" />

    
    <glyph glyph-name="gengduo" unicode="&#58921;" d="M229.514277 553.586396c-58.944484 0-106.727767-47.783283-106.727767-106.727767s47.783283-106.727767 106.727767-106.727767S336.242044 387.914146 336.242044 446.85863 288.458761 553.586396 229.514277 553.586396zM229.522464 375.70508c-39.240723 0-71.151503 31.91078-71.151503 71.151503s31.91078 71.151503 71.151503 71.151503 71.151503-31.91078 71.151503-71.151503S268.763187 375.70508 229.522464 375.70508zM514.121314 553.586396c-58.944484 0-106.727767-47.783283-106.727767-106.727767s47.783283-106.727767 106.727767-106.727767c58.944484 0 106.727767 47.783283 106.727767 106.727767S573.065797 553.586396 514.121314 553.586396zM514.1295 375.70508c-39.240723 0-71.151503 31.91078-71.151503 71.151503s31.91078 71.151503 71.151503 71.151503 71.151503-31.91078 71.151503-71.151503S553.370223 375.70508 514.1295 375.70508zM798.729373 553.586396c-58.944484 0-106.727767-47.783283-106.727767-106.727767s47.783283-106.727767 106.727767-106.727767c58.944484 0 106.727767 47.783283 106.727767 106.727767S857.672834 553.586396 798.729373 553.586396zM798.736537 375.70508c-39.240723 0-71.151503 31.91078-71.151503 71.151503s31.91078 71.151503 71.151503 71.151503 71.151503-31.91078 71.151503-71.151503S837.978283 375.70508 798.736537 375.70508z"  horiz-adv-x="1024" />

    
    <glyph glyph-name="return-copy" unicode="&#58892;" d="M399.211 76.048l39.583-39.585 365.646 365.721-365.646 365.679-39.583-39.583 326.126-326.12z"  horiz-adv-x="1024" />

    
    <glyph glyph-name="rili" unicode="&#59081;" d="M875.394451-63.349561l-728.256322 0c-46.406936 0-84.029812 37.620829-84.029812 84.027765L63.108317 664.904715c0 46.406936 37.622876 84.029812 84.029812 84.029812l112.039749 0 0-56.019875-140.049686 0 0-700.246385 784.273127 0L903.401318 692.914652 763.355725 692.914652l0 56.019875 112.039749 0c46.408983 0 84.029812-37.622876 84.029812-84.029812l0-644.22651C959.424262-25.728732 921.803433-63.349561 875.394451-63.349561zM651.315976 496.845091l112.039749 0 0-84.027765L651.315976 412.817326 651.315976 496.845091zM763.355725 132.71693 651.315976 132.71693 651.315976 216.746742l112.039749 0L763.355725 132.71693zM651.315976 356.796428l112.039749 0 0-84.029812L651.315976 272.766616 651.315976 356.796428zM693.330882 608.88484c-23.205515 0-42.014906 18.809391-42.014906 42.014906L651.315976 790.948409c0 23.205515 18.809391 42.016953 42.014906 42.016953 23.203468 0 42.014906-18.811438 42.014906-42.016953l0-140.049686C735.345788 627.694231 716.53435 608.88484 693.330882 608.88484zM455.247438 496.845091l112.039749 0 0-84.027765L455.247438 412.817326 455.247438 496.845091zM567.286164 132.71693 455.247438 132.71693 455.247438 216.746742l112.039749 0L567.287187 132.71693zM455.247438 356.796428l112.039749 0 0-84.029812L455.247438 272.766616 455.247438 356.796428zM399.227564 748.933503l224.078475 0 0-56.019875L399.227564 692.913629 399.227564 748.933503zM259.177877 216.746742l112.039749 0 0-84.029812L259.177877 132.71693 259.177877 216.746742zM259.177877 356.796428l112.039749 0 0-84.029812L259.177877 272.766616 259.177877 356.796428zM259.177877 496.845091l112.039749 0 0-84.027765L259.177877 412.817326 259.177877 496.845091zM329.202721 608.88484c-23.203468 0-42.014906 18.809391-42.014906 42.014906L287.187815 790.948409c0 23.205515 18.811438 42.016953 42.014906 42.016953s42.014906-18.811438 42.014906-42.016953l0-140.049686C371.217626 627.694231 352.406189 608.88484 329.202721 608.88484z"  horiz-adv-x="1024" />

    
    <glyph glyph-name="chat" unicode="&#59004;" d="M511.998 25.334c-30.636 0-60.401 2.74-89.418 7.597l-209.472-127.153 0 211.589c-109.219 76.715-179.334 194.278-179.334 326.412 0 231.141 214.080 418.445 478.224 418.445s478.224-187.304 478.224-418.445-214.080-418.446-478.224-418.446v0zM511.998 803.798c-231.913 0-419.911-161.068-419.911-359.887 0-121.934 70.971-229.523 179.189-294.579l-1.888-139.173 141.186 84.813c32.591-6.921 66.315-10.948 101.423-10.948 231.913 0 419.911 161.068 419.911 359.887s-187.997 359.887-419.911 359.887v0zM751.11 384.001c-33.002 0-59.778 26.776-59.778 59.778s26.776 59.778 59.778 59.778c33.002 0 59.778-26.775 59.778-59.778 0-33.002-26.775-59.778-59.778-59.778v0zM511.998 384.001c-33.002 0-59.778 26.776-59.778 59.778s26.775 59.778 59.778 59.778 59.778-26.775 59.778-59.778c0-33.002-26.775-59.778-59.778-59.778v0zM272.887 384.001c-33.002 0-59.778 26.776-59.778 59.778s26.776 59.778 59.778 59.778 59.778-26.775 59.778-59.778c0-33.002-26.775-59.778-59.778-59.778v0z"  horiz-adv-x="1024" />

    
    <glyph glyph-name="zan" unicode="&#58937;" d="M919.07072 580.47488c-9.984 5.3248-20.39808 9.94304-31.60064 13.1584-9.85088 0-33.024 0-34.12992 0L716.8 593.63328c8.13056 56.76032 22.95808 123.20768 29.72672 180.0704 7.64928 46.92992-38.47168 92.20096-82.60608 79.03232-40.94976-10.84416-86.35392-16.08704-119.01952-46.848-39.43424-34.85696-70.02112-79.03232-101.57056-121.38496-35.59424-50.49344-70.7072-101.81632-99.67616-156.76416-15.90272-20.3264-27.66848-44.032-33.00352-70.23616L153.6 457.50272c-84.82816 0-153.6-68.56704-153.6-153.1392l0-204.20608c0-84.5824 68.77184-153.1392 153.6-153.1392l221.87008 0-0.0512 0.80896C404.00896-73.75872 439.2448-87.04 477.87008-87.04L819.2-87.04c94.2592 0 170.67008 76.1856 170.67008 170.16832L1024 423.46496C1024 494.20288 980.67456 554.8032 919.07072 580.47488z"  horiz-adv-x="1024" />

    
    <glyph glyph-name="gouwuche" unicode="&#58885;" d="M734.084 94.804c-2.108 0-4.174 0-6.242 0-100.238 0-200.48-0.058-300.719 0.148-5.852 0.011-7.266-1.642-6.139-6.959 2.046-9.67 4.497-19.305 5.69-29.086 3.56-29.158-6.797-53.432-28.82-72.061-52.915-44.767-131.159-23.79-155.131 41.207-9.896 26.826-4.817 52.006 9.141 76.026 3.446 5.932 7.093 11.793 11.948 16.668 2.688 2.697 2.236 4.25-0.179 6.828-12.734 13.626-21.644 29.27-24.76 47.939-3.685 22.081 0.522 42.813 10.767 62.389 10.015 19.137 24.057 34.687 43.129 45.186 3.714 2.046 2.717 4.407 2.066 7.082-12.741 52.27-25.516 104.533-38.263 156.802-8.511 34.909-17.408 69.733-25.251 104.793-2.834 12.672-2.599 25.887-5.673 38.758-13.153 55.11-25.627 110.383-38.174 165.638-0.914 4.030-2.626 4.895-6.49 4.873-29.347-0.17-58.695-0.067-88.042-0.105-13.543-0.016-22.785 6.977-28.513 18.481-7.386 14.829 1.201 29.008 18.842 31.864 3.744 0.605 7.588 0.829 11.385 0.834 43.261 0.056 86.52-0.036 129.78 0.139 4.497 0.018 6.033-1.284 7.015-5.729 6.157-27.846 12.846-55.574 19.021-83.417 1.123-5.065 3.128-6.378 8.271-6.372 206.007 0.155 412.015 0.112 618.023 0.188 12.66 0.004 24.655-2.164 35.536-8.758 16.894-10.243 25.982-37.486 20.826-56.665-6.51-24.221-11.583-48.831-17.226-73.284-23.342-101.157-46.633-202.325-70.013-303.476-5.097-22.065-25.399-38.807-48.893-40.604-2.843-0.217-5.711-0.197-8.569-0.197-149.978-0.009-299.959-0.125-449.938 0.154-17.502 0.031-29.817-7.315-38.933-21.404-2.164-3.342-3.777-7.035-5.863-10.427-8.39-13.66-4.288-25.88 4.49-37.342 9.907-12.938 23.102-18.98 39.529-18.971 161.606 0.108 323.21 0.457 484.813-0.22 38.527-0.163 68.963-18.227 85.963-53.359 17.222-35.601 12.523-70.515-12.687-100.995-24.109-29.152-55.868-41.7-93.282-32.808-38.792 9.217-63.286 34.808-72.442 73.437-4.774 20.148-3.936 40.873 3.986 60.664 0.186 0.479 0.020 1.102 0.020 2.142zM301.424 541.455c-3.994 0.004-5.531-0.101-4.376-5.099 18.963-82.244 37.69-164.541 56.363-246.851 0.795-3.508 2.368-4.328 5.767-4.326 143.275 0.087 286.549 0.087 429.822-0.004 3.43 0 4.954 0.867 5.749 4.355 18.582 81.742 37.28 163.463 55.948 245.191 1.519 6.658 1.477 6.665-5.704 6.665-90.309 0-180.618 0-270.926 0-90.882 0.002-181.762-0.018-272.643 0.069zM861.341 592.555c3.231 0 5.67-0.098 6.479 4.165 4.044 21.299 8.287 42.564 12.732 63.787 0.932 4.456-0.067 5.35-4.539 5.272-41.725-0.719-83.451-1.223-125.178-1.727-159.484-1.916-318.962-3.842-478.446-5.572-5.525-0.060-5.502-1.842-4.499-6.123 4.205-17.956 8.352-35.933 12.066-53.995 0.968-4.711 2.736-5.892 7.433-5.883 95.468 0.155 190.937 0.117 286.405 0.117 95.849 0.002 191.698 0.009 287.548-0.042zM332.651 102.223c-21.498 0.128-43.776-22.072-43.954-43.801-0.182-21.817 22.067-43.92 44.294-44.009 24.765-0.099 43.114 18.21 43.333 43.241 0.197 22.166-21.633 44.442-43.673 44.568zM833.709 16.774c13.975 3.598 23.19 15.035 25.361 28.359 4.223 25.908-25.137 59.511-60.203 46.886-17.533-6.313-27.993-20.175-26.933-36.047 1.467-21.949 23.456-42.051 46.756-41.496 4.23-0.023 9.674 0.921 15.019 2.298z"  horiz-adv-x="1024" />

    
    <glyph glyph-name="asmkticon0224" unicode="&#59379;" d="M512 768c-211.84 0-384-172.16-384-384s172.16-384 384-384 384 172.16 384 384S723.84 768 512 768zM736 364.8 288 364.8c-10.88 0-19.2 8.32-19.2 19.2s8.32 19.2 19.2 19.2l448 0c10.88 0 19.2-8.32 19.2-19.2S746.88 364.8 736 364.8z"  horiz-adv-x="1024" />

    
    <glyph glyph-name="dun" unicode="&#58971;" d="M508.364323-62.248594 469.453455-39.528204 462.855165-35.759709C348.107424 29.422221 277.578486 74.811231 237.544298 117.498412 209.713285 147.057386 188.961148 179.350426 174.243687 212.490352 164.588987 234.234919 158.918657 252.972895 156.268596 266.522102L135.968718 262.488888 156.543077 264.694506 155.553578 274.058118 134.979219 271.85055 155.66591 271.934557 153.752357 747.95409 139.734286 728.138706 507.072015 854.243712 493.722076 854.244689 861.051992 728.07033 847.037825 747.898413 844.813648 269.458364 865.50034 269.362639 845.071526 272.650547C842.620733 257.197558 836.941609 236.82442 827.093504 213.993652 812.676901 180.568498 791.760657 147.833944 763.204862 117.448597 737.553091 90.148962 690.77995 56.124055 630.598266 19.040783 590.348205-5.764101 550.460537-28.135775 517.658584-45.455433L487.945275-62.054215 508.356508-62.244688 508.364323-62.248594ZM487.615116-98.316971 497.767009-104.246155 537.306935-82.146031C570.415604-64.672041 611.054431-41.875456 652.197288-16.525517 715.301561 22.360927 764.417068 58.087424 793.260047 88.785349 849.760173 148.902566 877.594117 213.427107 885.941858 266.071796L886.192894 267.653237 886.19973 269.259098 888.494236 762.691087 500.403395 895.998046 112.314506 762.767277 112.375067 747.78315 114.292528 270.698901 115.393382 260.279364 115.66591 258.454699C118.895214 241.965324 125.4642 220.240291 136.463956 195.457877 153.011941 158.193893 176.303761 121.946765 207.486178 88.828328 251.609255 41.784617 323.35138-4.392672 442.486911-72.060562L448.868352-75.706958 487.600464-98.326738 487.615116-98.316971ZM347.824151 615.239072 458.048327 421.265934 378.082515 421.265934 378.082515 394.248597 473.177997 394.248597 473.177997 341.298166 378.082515 341.298166 378.082515 314.284739 473.177997 314.284739 473.177997 229.453478 520.725739 229.453478 520.725739 314.284739 616.362369 314.284739 616.362369 341.302077 520.728669 341.302077 520.728669 394.252503 616.362369 394.252503 616.362369 421.269841 535.853455 421.269841 646.07763 615.240049 592.587033 615.240049 496.953333 438.019048 401.319634 615.240049 347.829035 615.240049 347.824151 615.239072Z"  horiz-adv-x="1024" />

    
    <glyph glyph-name="dingcan2" unicode="&#59039;" d="M448.592 623.248c-64.064 49.36-61.08 140.944-8.488 189.064 49.328 45.128 125.96 42.848 172.552-5.68 47.28-49.256 47.432-133.976-14.416-183.32 9.816-2.224 19.24-4.232 28.6-6.496 158.488-38.312 284.624-168.016 317.632-327.128 4-19.304 6.144-39.016 8.584-58.6 0.6-4.768 1.68-7.192 6.44-9.168 36.304-15.136 59.032-52.192 56.272-90.952-2.8-39.336-29.728-72.592-67.704-82.784-7.904-2.12-16.336-3.232-24.528-3.24-266.728-0.16-533.464-0.176-800.184-0.088-45 0.016-81.656 30.872-90.608 75.584C24.36 162.312 47.768 205.368 88.4 222.24c4.024 1.672 5.248 3.808 5.552 7.88 4.664 63.472 21.776 123.44 53.616 178.544 66.608 115.28 165.344 186.584 296.024 213.232C445.216 622.232 446.808 622.76 448.592 623.248L448.592 623.248zM522.712 106.2c131.64 0 263.28 0 394.912 0.008 2.552 0 5.112-0.088 7.656 0.08 16.312 1.064 29.104 14.56 29.152 30.688 0.048 15.632-12.336 29.248-27.784 30.56-23.792 2.016-32.744 12.448-34.208 36.432-1.384 22.64-2.768 45.528-7.2 67.704-39.256 196.32-229.264 325.504-426.176 290.384-174.568-31.144-302.64-182.016-304.648-358.92-0.264-22.672-10.768-33.816-33.536-35.56-23.152-1.768-35.976-28.36-22.872-47.608 6.808-10 16.616-13.8 28.504-13.8C258.592 106.232 390.648 106.2 522.712 106.2L522.712 106.2zM584.984 721.552c0.12 34.016-27.52 61.776-61.432 61.696-33.784-0.072-61.304-27.432-61.456-61.08-0.152-34.072 27.296-61.912 61.152-62.032C557.208 660.008 584.856 687.52 584.984 721.552L584.984 721.552zM524.056-16.784c152.48 0 304.96 0.008 457.432-0.008 18.256 0 30.312-8.912 33.752-24.832 3.544-16.432-7.712-33.256-24.288-36.04-3.752-0.632-7.608-0.776-11.432-0.776-304.104-0.032-608.224-0.032-912.328-0.024-18.248 0-29.92 7.28-34.52 21.472-5.704 17.608 5.568 36.432 23.784 39.488 3.536 0.592 7.192 0.688 10.792 0.688C219.52-16.784 371.784-16.784 524.056-16.784L524.056-16.784zM512.96 505.888c4.88 0 9.808 0.448 14.632-0.088 14.8-1.624 26.04-14.008 26.56-28.776 0.552-15.744-9.6-29.2-24.864-31.456-10.256-1.512-20.808-0.992-31.112-2.336-98.44-12.88-166.096-65.96-204.44-157.104-1.152-2.736-1.976-5.616-3.24-8.296-6.976-14.824-24.152-21.552-39.28-15.48-15.08 6.064-22.96 22.592-17.544 38.344 11.864 34.504 29.56 65.848 52.992 93.8 49.632 59.216 112.632 95.32 188.872 107.984 12.336 2.048 24.904 2.752 37.36 4.072C512.92 506.344 512.936 506.112 512.96 505.888L512.96 505.888zM512.96 505.888"  horiz-adv-x="1024" />

    
    <glyph glyph-name="fanhui" unicode="&#58887;" d="M624.789 691.952l-39.583 39.584-365.646-365.721 365.646-365.679 39.583 39.583-326.126 326.12z"  horiz-adv-x="1024" />

    
    <glyph glyph-name="icon211" unicode="&#58899;" d="M512.880043 646.58344m-75.664284 0a73.941 73.941 0 1 0 151.328567 0 73.941 73.941 0 1 0-151.328567 0ZM512.880043 381.756913m-75.664284 0a73.941 73.941 0 1 0 151.328567 0 73.941 73.941 0 1 0-151.328567 0ZM512.880043 116.932432m-75.664284 0a73.941 73.941 0 1 0 151.328567 0 73.941 73.941 0 1 0-151.328567 0Z"  horiz-adv-x="1024" />

    
    <glyph glyph-name="waimai" unicode="&#59435;" d="M213.540979 687.983339l156.759253 0c19.780509 0 35.815717 16.035208 35.815717 35.815717s-16.035208 35.815717-35.815717 35.815717L213.540979 759.614773c-19.780509 0-35.815717-16.035208-35.815717-35.815717S193.76047 687.983339 213.540979 687.983339zM215.176223 207.452052c-19.120476 0-34.675754-15.555278-34.675754-34.675754 0-19.1215 15.555278-34.676777 34.675754-34.676777s34.675754 15.555278 34.675754 34.676777C249.853 191.895751 234.296699 207.452052 215.176223 207.452052zM215.176223 156.286742c-9.092076 0-16.489556 7.397481-16.489556 16.489556 0 9.092076 7.397481 16.488533 16.489556 16.488533s16.489556-7.397481 16.489556-16.488533C231.665779 163.683199 224.269321 156.286742 215.176223 156.286742zM805.513382 207.452052c-19.120476 0-34.675754-15.555278-34.675754-34.675754 0-19.1215 15.555278-34.676777 34.675754-34.676777 19.1215 0 34.676777 15.555278 34.676777 34.676777C840.190159 191.895751 824.634882 207.452052 805.513382 207.452052zM805.513382 156.286742c-9.092076 0-16.488533 7.397481-16.488533 16.489556 0 9.092076 7.397481 16.488533 16.488533 16.488533 9.093099 0 16.489556-7.397481 16.489556-16.488533C822.002938 163.683199 814.606481 156.286742 805.513382 156.286742zM920.649656 287.912571 920.649656 287.912571l9.616008 0.001023c19.778462 0 35.815717 16.036231 35.815717 35.815717 0 19.780509-16.035208 35.815717-35.815717 35.815717l-570.57507 0.001023 0 68.562539L359.690594 570.16191l0 64.611553c0 19.780509-16.035208 35.815717-35.815717 35.815717l-99.05604 0c-13.815657 0-26.400277-7.946996-32.338522-20.422122L88.81428 432.394197c-1.650593-3.489474-36.890188-79.988776 4.362354-151.908782-25.391297-28.725228-40.827871-66.446341-40.827871-107.709117 0-89.782839 73.043596-162.827459 162.827459-162.827459 85.565794 0 155.927305 66.342987 162.348552 150.290935l265.638009 0c6.42227-83.947947 76.784804-150.290935 162.349575-150.290935 89.782839 0 162.827459 73.04462 162.827459 162.827459C968.340841 216.269881 951.403077 257.15915 920.649656 287.912571zM145.268036 367.348762c1.685385 19.116383 7.875365 33.443693 8.376785 34.577516l93.792153 197.030445 40.623209 0 0-28.795836 0-142.05332 0-69.586868c0-38.932708 31.67542-70.607104 70.608128-70.607104l331.820338-0.001023c-20.774139-20.75265-35.972283-47.078225-43.161009-76.509535L373.41006 211.403037c-6.956436 28.724205-21.667485 55.078433-43.097564 76.508511-30.754444 30.754444-71.643714 47.690162-115.136274 47.690162-22.402219 0-43.760666-4.548596-63.204507-12.768815C146.077471 336.041732 143.821081 350.94107 145.268036 367.348762zM215.176223 81.580273c-50.285267 0-91.196025 40.910759-91.196025 91.196025 0 50.285267 40.910759 91.195002 91.196025 91.195002 24.358781 0 47.260373-9.486048 64.484663-26.710338s26.710338-40.125883 26.710338-64.485687C306.372248 122.490008 265.462512 81.580273 215.176223 81.580273zM805.513382 81.580273c-50.28629 0-91.196025 40.910759-91.196025 91.196025 0 50.285267 40.910759 91.195002 91.197048 91.195002 24.358781 0 47.260373-9.486048 64.484663-26.710338 17.225313-17.22429 26.711362-40.125883 26.711362-64.485687C896.709407 122.490008 855.799672 81.580273 805.513382 81.580273zM599.122755 413.336142c12.875239-10.508331 29.561269-16.295128 46.982034-16.295128l241.436818 0c17.420765 0 34.105772 5.786797 46.981011 16.295128 14.775518 12.059664 23.25054 29.411867 23.25054 47.609321L957.773158 585.326285c0 18.197454-8.473999 35.550681-23.251563 47.609321-12.874215 10.508331-29.560246 16.294105-46.979988 16.294105L646.104789 649.22971c-17.420765 0-34.106796-5.786797-46.982034-16.294105-14.775518-12.05864-23.25054-29.411867-23.25054-47.609321l0-124.380822C575.872215 442.748009 584.346213 425.394782 599.122755 413.336142zM647.503649 577.598276l238.637052 0 0-108.925828L647.503649 468.672448 647.503649 577.598276z"  horiz-adv-x="1024" />

    
    <glyph glyph-name="renyuan1" unicode="&#58912;" d="M761.6 262.4l-38.4 32c-6.4 6.4-12.8 6.4-19.2 6.4-19.2 0-38.4-19.2-38.4-38.4 0-12.8 6.4-19.2 12.8-25.6 64-51.2 102.4-128 108.8-204.8L236.8 32c6.4 147.2 128 262.4 275.2 262.4 128 0 236.8 102.4 236.8 236.8S646.4 768 512 768C384 768 275.2 665.6 275.2 531.2c0-76.8 38.4-153.6 102.4-198.4-57.6-25.6-102.4-64-140.8-108.8-44.8-57.6-70.4-134.4-70.4-211.2l0-51.2 697.6 0 0 51.2C857.6 108.8 825.6 198.4 761.6 262.4zM345.6 531.2c0 89.6 76.8 166.4 166.4 166.4s166.4-76.8 166.4-166.4S601.6 364.8 512 364.8 345.6 441.6 345.6 531.2L345.6 531.2z"  horiz-adv-x="1024" />

    
    <glyph glyph-name="suo" unicode="&#59082;" d="M798.418609 520.312925h-32.153071v58.769994c0 140.05625-113.94615 253.993185-254.002399 253.993184S258.269954 719.140192 258.269954 579.082919v-58.769994H226.117907c-37.012431 0-67.128994-30.116563-67.128994-67.119779v-164.375574c0-194.792135 158.483114-353.275249 353.275249-353.275249 194.80135 0 353.284464 158.483114 353.284465 353.275249V453.193146c-0.001024 37.003216-30.117587 67.119779-67.130018 67.119779z m-501.719167 58.769994c0 118.872062 96.701873 215.563697 215.563697 215.563697 118.872062 0 215.573936-96.692658 215.573935-215.563697v-58.769994h-431.137632v58.769994z m530.419697-290.264323c0-173.606924-141.248052-314.845761-314.854977-314.845761S197.417377 115.211672 197.417377 288.818596v164.37455c0 15.818004 12.872286 28.690291 28.699506 28.690291H798.418609c15.827219 0 28.699506-12.872286 28.699506-28.690291v-164.37455zM512.263139 389.67642c-42.585438 0-77.224503-34.639064-77.224503-77.233718a77.062729 77.062729 0 0 1 38.485801-66.80135v-100.351001c0-7.955589 6.454573-14.411186 14.411186-14.411185h48.318173c7.955589 0 14.411186 6.454573 14.411186 14.411185v100.18206c23.867791 13.641224 38.832899 38.973171 38.832898 66.969268-0.001024 42.595677-34.649303 77.234742-77.234741 77.234741z m18.473962-121.930408a14.416305 14.416305 0 0 1-8.894491-13.322795v-94.72168h-19.495801v94.834307c0 5.798263-3.470971 11.033388-8.818724 13.284912-18.023453 7.580847-29.666053 25.106692-29.666054 44.621946 0 26.701905 21.710464 48.411346 48.402131 48.411346s48.41237-21.710464 48.41237-48.411346c-0.001024-19.627882-11.757275-37.172157-29.939431-44.69669z"  horiz-adv-x="1024" />

    
    <glyph glyph-name="renyuan2" unicode="&#58910;" d="M972.888144 56.736443c-0.00289 139.785985-80.267231 259.268546-193.774075 307.995462 54.97429 39.617757 91.202122 107.114972 91.202122 183.765417 0 104.649112-67.499382 192.230113-158.103282 215.006621-0.840256 0.22036-1.628493 0.102594-2.395778-0.21747-1.031716 0.103316-2.030198 0.34246-3.078531 0.34246-19.356239 0-35.046561-16.930116-35.046562-37.805029 0-18.855553 12.837208-34.352248 29.57731-37.203917 2.978828-1.309875 6.886778-2.307634 7.039946-2.366878 52.469416-19.205961 90.230373-72.707815 90.230372-135.789169 0-70.342381-46.977044-128.793294-108.931312-141.027223-0.087421-0.007947-0.160393-0.180623-0.247814-0.226862-20.610482-1.405244-36.982113-19.697254-36.982113-42.275799 0-22.918838 16.849197-41.482505 37.901843-42.387063 0.148111-0.075861 0.273824-0.323676 0.424102-0.333791 124.602128-13.688302 212.925849-128.161115 212.925848-267.485428 0-20.619874 15.507533-37.343358 34.633297-37.343358 18.658313 0 33.759806 15.955477 34.488076 35.88754 0.024565 0.19435 0.139441 0.349685 0.139441 0.541867 0 0.070804-0.021675 0.140163-0.021675 0.22325 0.009392 0.233364 0.021675 0.458059 0.021675 0.686366v0.012282h-0.00289M557.913538 358.533661c65.646917 47.436548 108.888686 128.095369 108.888686 219.71798 0 145.993622-109.742669 264.354878-245.122908 264.354878-135.376626 0-245.125798-118.361256-245.125798-264.354878 0-91.629837 43.251161-172.281433 108.887241-219.71798-135.701024-58.403229-231.647741-201.329879-231.647741-368.515587 0-9.416217 0.495628-18.681433 1.163209-27.901132h0.061412c0-20.350385 15.293675-36.831112 34.165845-36.831112 18.86061 0 34.157898 16.480727 34.157898 36.831112 0 1.146592-0.216747 2.227438-0.315005 3.35091-0.657466 8.111399-1.223176 16.235803-1.223177 24.550222 0 178.609003 134.253154 323.388118 299.872503 323.388118 165.620794 0 299.87756-144.779116 299.877561-323.388118 0-8.617865-0.564987-17.096289-1.269416-25.500297-0.00289-0.438552-0.118488-0.836644-0.118488-1.278085 0-0.137996 0.039737-0.263709 0.039737-0.392312-0.021675-0.239867-0.01445-0.494183-0.039737-0.729716h0.112708c0.564987-19.804183 15.548714-35.71631 34.04808-35.716309 18.508035 0 33.489594 15.902012 34.056749 35.716309h0.073694c0.641571 9.224757 1.100353 18.49503 1.100353 27.887405 0.006502 167.198713-95.935156 310.125363-231.643406 368.528592m-136.234222 29.825846c-97.245031 0-176.076674 85.01905-176.076674 189.892134 0 104.868027 78.831643 189.886355 176.076674 189.886355 97.245754 0 176.074507-85.016883 176.074507-189.886355 0-104.872362-78.828753-189.892134-176.074507-189.892134m0 0z"  horiz-adv-x="1024" />

    
    <glyph glyph-name="quan" unicode="&#58962;" d="M511.912507 830.554452c-246.605537 0-446.529893-199.970404-446.529892-446.553429 0-246.62805 199.924355-446.553429 446.529892-446.553428 246.651586 0 446.575942 199.925379 446.575942 446.553428 0 246.583025-199.924355 446.553429-446.575942 446.553429z m0-829.305763c-211.406874 0-382.77587 171.346483-382.77587 382.752334 0 211.383338 171.368996 382.776893 382.77587 382.776894 211.452923 0 382.822942-171.393555 382.822942-382.776894-0.001023-211.405851-171.371042-382.752334-382.822942-382.752334z"  horiz-adv-x="1024" />

    
    <glyph glyph-name="xiangji" unicode="&#58959;" d="M860.1 669.1h-96.7C761 674.7 750.9 698 746 708c-14.3 29.8-23 42-52.3 42H332.9c-28.7 0-41.2-11.7-58.2-54.4-3.9-9.8-9.7-22.6-11.5-26.5h-99.4c-54.7 0-99.2-44.4-99.2-99.1v-453c0-54.6 44.5-99.1 99.2-99.1h696.3c54.7 0 99.2 44.4 99.2 99.1V570c0 54.7-44.5 99.1-99.2 99.1z m-759-99.1c0 34.5 28.1 62.7 62.7 62.7h106.8c13.2 0 17.7 5.9 20.6 12.3 5.1 11.5 8.7 20 12.1 28.2 1.9 4.5 3.7 8.9 5.8 13.8 0.4 0.9 0.8 2 1.3 3.3 3.4 8.7 9.1 23.3 22.5 23.3h359.6c11.7 0 15.4-8.6 18.7-16.2l0.6-1.5c2.2-5 5.6-12.5 9-20.3 5.8-13 11.7-26.3 13.5-30.6 3.1-7.4 10.1-12.3 17.5-12.3H860c34.6 0 62.8-28.2 62.8-62.7v-453c0-34.5-28.1-62.7-62.8-62.7H163.8c-34.6 0-62.7 28.1-62.7 62.7V570zM512 140c112.1 0 203.3 91.2 203.3 203.3 0 112.1-91.2 203.3-203.3 203.3-112.1 0-203.3-91.2-203.3-203.3C308.7 231.2 399.9 140 512 140z m0 371.4c92.7 0 168-75.4 168-168.1 0-92.7-75.4-168.1-168-168.1s-168 75.4-168 168.1c0 92.7 75.3 168.1 168 168.1zM774.2 510.3h45.5c10 0 18.2 8.1 18.2 18.2 0 10-8.2 18.2-18.2 18.2h-45.5c-10 0-18.2-8.2-18.2-18.2s8.2-18.2 18.2-18.2z"  horiz-adv-x="1024" />

    
    <glyph glyph-name="nan" unicode="&#58974;" d="M449.163636 507.345455h-4.654545c-107.054545-2.327273-190.836364-90.763636-188.509091-195.49091 0-51.2 20.945455-100.072727 58.181818-134.981818s83.781818-53.527273 132.654546-53.527272h4.654545c51.2 0 100.072727 20.945455 134.981818 58.181818s55.854545 86.109091 53.527273 137.309091c0 51.2-20.945455 100.072727-58.181818 134.981818s-83.781818 53.527273-132.654546 53.527273zM512 896C228.072727 896 0 667.927273 0 384s228.072727-512 512-512 512 228.072727 512 512S795.927273 896 512 896z m300.218182-416.581818c-4.654545-4.654545-11.636364-6.981818-18.618182-6.981818-13.963636 0-25.6 11.636364-25.6 25.6l-2.327273 109.381818-130.327272-134.981818c34.909091-41.890909 55.854545-95.418182 55.854545-151.272728 2.327273-134.981818-104.727273-246.690909-239.709091-249.018181h-4.654545c-132.654545 0-242.036364 107.054545-244.363637 239.70909-2.327273 134.981818 104.727273 246.690909 239.709091 249.018182h4.654546c53.527273 0 107.054545-18.618182 151.272727-51.2l130.327273 134.981818-111.709091-2.327272c-13.963636 0-25.6 11.636364-25.6 25.6 0 6.981818 2.327273 13.963636 6.981818 18.618182 4.654545 4.654545 11.636364 6.981818 18.618182 6.981818l174.545454 4.654545c6.981818 0 13.963636-2.327273 18.618182-6.981818 4.654545-4.654545 6.981818-11.636364 6.981818-18.618182l2.327273-174.545454c2.327273-6.981818 0-13.963636-6.981818-18.618182z"  horiz-adv-x="1024" />

    
    <glyph glyph-name="saoma" unicode="&#58889;" d="M661.312 853.696h192s128 0 128-128v-192h-64v192s0 64-64 64h-192v64zM663.936 789.696c-17.664 0-32 14.336-32 32s14.336 32 32 32h64c17.664 0 32-14.336 32-32s-14.336-32-32-32h-64zM981.312 534.72c0-17.664-14.336-32-32-32s-32 14.336-32 32v64c0 17.664 14.336 32 32 32s32-14.336 32-32v-64zM113.856 536.256c0-17.664-14.336-32-32-32s-32 14.336-32 32v189.44s0 128 128 128h192v-64h-192s-64 0-64-64v-189.44M368.768 853.696c17.664 0 32-14.336 32-32s-14.336-32-32-32h-64c-17.664 0-32 14.336-32 32s14.336 32 32 32h64zM982.848 237.504v-192s0-128-128-128h-192v64h192s64 0 64 64v192h64zM918.848 234.88c0 17.664 14.336 32 32 32s32-14.336 32-32v-64c0-17.664-14.336-32-32-32s-32 14.336-32 32v64zM663.936-82.496c-17.664 0-32 14.336-32 32s14.336 32 32 32h64c17.664 0 32-14.336 32-32s-14.336-32-32-32h-64zM369.856-84.032h-192s-128 0-128 128v192h64v-192s0-64 64-64h192v-64zM367.232-20.032c17.664 0 32-14.336 32-32s-14.336-32-32-32h-64c-17.664 0-32 14.336-32 32s14.336 32 32 32h64zM49.856 234.88c0 17.664 14.336 32 32 32s32-14.336 32-32v-64c0-17.664-14.336-32-32-32s-32 14.336-32 32v64zM982.848 384c0-15.488-12.096-28.032-27.072-28.032H76.864c-14.912 0-27.008 12.544-27.008 28.032s12.096 28.032 27.072 28.032H955.84c14.912 0 27.008-12.544 27.008-28.032z"  horiz-adv-x="1024" />

    
    <glyph glyph-name="weibiaoti201" unicode="&#58886;" d="M513.755-52.24c-241.348 0-437.704 196.28-437.704 437.674 0 241.424 196.356 437.75 437.704 437.75 23.778 0 42.932-19.214 42.932-42.916 0-23.731-19.23-42.946-42.932-42.946-193.946 0-351.873-157.882-351.873-351.842 0-194.007 157.882-351.812 351.873-351.812 111.761 0 214.351 51.25 281.563 140.682 14.208 18.97 41.024 22.877 60.055 8.592 18.986-14.285 22.893-41.13 8.607-60.1-83.542-111.319-211.16-175.082-350.225-175.082v0 0zM891.496 239.946c-3.631 0-7.402 0.458-11.126 1.511-22.969 6.089-36.505 29.684-30.325 52.561 7.952 29.714 12.042 60.436 12.042 91.463 0 143.979-86.214 272.069-219.676 326.218-21.992 8.989-32.569 33.926-23.656 55.918 8.837 21.992 33.851 32.69 55.918 23.702 166.032-67.442 273.274-226.742 273.274-405.838 0-38.444-5.052-76.72-14.941-113.684-5.204-19.23-22.572-31.85-41.512-31.85v0 0zM678.55 294.078h-167.878c-23.731 0-42.993 19.307-42.993 42.993v234.647c0 23.778 19.307 42.993 42.993 42.993 23.702 0 42.885-19.26 42.885-42.993v-191.763h124.994c23.702 0 42.977-19.26 42.977-42.945 0-23.778-19.275-42.932-42.977-42.932v0 0zM678.55 294.078z"  horiz-adv-x="1024" />

    
    <glyph glyph-name="star01" unicode="&#58888;" d="M248.482-42c-4.306 0-8.593 1.336-12.211 3.967-6.396 4.647-9.601 12.521-8.264 20.315l48.43 282.364-205.148 199.971c-5.661 5.52-7.698 13.773-5.256 21.292 2.445 7.519 8.944 13 16.769 14.138l283.508 41.195 126.79 256.904c3.499 7.089 10.72 11.578 18.627 11.578s15.128-4.489 18.627-11.578l126.789-256.904 283.51-41.195c7.823-1.138 14.322-6.619 16.767-14.138 2.443-7.519 0.405-15.773-5.256-21.292l-205.151-199.971 48.43-282.364c1.336-7.793-1.869-15.668-8.264-20.315-6.4-4.647-14.879-5.258-21.874-1.582l-253.577 133.316-253.58-133.316c-3.039-1.596-6.357-2.385-9.664-2.385zM130.422 464.989l182.834-178.217c4.894-4.773 7.128-11.647 5.974-18.386l-43.163-251.645 225.994 118.812c6.049 3.18 13.283 3.18 19.331 0l225.992-118.812-43.163 251.645c-1.154 6.738 1.080 13.613 5.974 18.386l182.833 178.217-252.666 36.714c-6.767 0.983-12.614 5.233-15.641 11.363l-112.996 228.956-112.998-228.956c-3.026-6.13-8.874-10.379-15.639-11.363l-252.668-36.714z"  horiz-adv-x="1024" />

    
    <glyph glyph-name="gou2" unicode="&#58890;" d="M954.579 384.043c0-244.543-198.078-442.58-442.58-442.58-244.371 0-442.58 198.037-442.58 442.58 0 244.458 198.209 442.494 442.58 442.494 244.502 0 442.58-198.036 442.58-442.494zM771.065 525.981l-68.807 68.764-286.9-287.376-93.657 93.963-68.764-68.634 159.528-159.442 2.894 2.983 2.852-2.983 352.854 352.725z"  horiz-adv-x="1024" />

    
    <glyph glyph-name="dizhi" unicode="&#58940;" d="M547.84-30.72c46.08 35.84 92.16 71.68 133.12 117.76 117.76 122.88 189.44 266.24 189.44 414.72C870.4 691.2 711.68 844.8 512 844.8S153.6 691.2 153.6 501.76c0-148.48 71.68-286.72 189.44-414.72 40.96-46.08 87.04-81.92 133.12-117.76 10.24-10.24 25.6-15.36 35.84-25.6 10.24 10.24 20.48 20.48 35.84 25.6zM512-112.64S102.4 133.12 102.4 506.88C102.4 721.92 286.72 896 512 896s409.6-174.08 409.6-389.12c-5.12-389.12-409.6-619.52-409.6-619.52zM517.12 322.56c97.28 0 179.2 81.92 179.2 179.2S614.4 680.96 517.12 680.96 337.92 604.16 337.92 501.76s76.8-179.2 179.2-179.2z m0 51.2c-71.68 0-128 56.32-128 128s56.32 128 128 128 128-56.32 128-128-61.44-128-128-128z"  horiz-adv-x="1024" />

    
    <glyph glyph-name="qia" unicode="&#58894;" d="M512.355 723.657c119.704-0.001 239.408 0.349 359.109-0.209 37.077-0.173 64.464-18.308 82.074-51.018 8.379-15.564 12.315-32.121 12.306-49.844-0.096-160.021 0.063-320.042-0.17-480.064-0.042-29.086-11.141-54.031-32.582-73.878-12.515-11.584-27.043-19.74-44.258-22.093-7.33-0.997-14.723-2.177-22.088-2.181-237.734-0.111-475.468-0.276-713.202 0.09-39.971 0.062-68.347 20.143-85.49 56.111-6.789 14.243-9.874 29.225-9.861 45.088 0.125 157.932 0.163 315.865-0.039 473.797-0.023 19.018 3.547 36.877 12.54 53.569 10.831 20.108 26.334 35.001 47.904 43.558 12.651 5.02 25.461 7.19 39.036 7.17 118.241-0.168 236.482-0.096 354.721-0.096zM95.92 443.049v-8.327c0-82.095-0.083-164.191 0.099-246.288 0.024-10.933 1.31-21.865 2.155-32.789 1.102-14.204 7.302-26.709 15.671-37.535 17.305-22.385 40.124-33.944 69.204-33.911 216.625 0.263 433.251 0.111 649.875 0.242 9.884 0.007 19.799 1.18 29.64 2.337 11.316 1.328 21.404 6.52 30.015 13.416 24.119 19.326 35.758 44.743 35.678 75.865-0.223 86.69-0.076 173.382-0.076 260.076v6.914H95.92z m833.268 120.597c-1.092 16.594-1.971 32.675-3.265 48.722-1.125 13.956-7.204 26.23-15.46 37.062-17.386 22.803-40.332 34.327-69.595 34.294-218.491-0.237-436.979-0.149-655.467-0.073-11.252 0.004-22.083-1.047-32.865-4.843-17.83-6.275-31.2-17.889-41.443-33.14-7.119-10.598-12.48-22.217-13.237-35.391-0.887-15.423-1.854-30.843-2.808-46.631h834.14zM644.435 144.798c16.001 33.415 31.661 66.067 47.264 98.745a208.63 208.63 0 0 1 5.84 13.395c2.058 5.227 4.909 7.922 11.327 7.859 36.316-0.365 72.642-0.177 108.962-0.177h69.855c1.831-7.296-3.239-12.139-5.641-17.464-9.332-20.697-19.315-41.095-29.008-61.628-5.968-12.643-11.648-25.429-17.978-37.885-0.922-1.814-4.745-3.017-7.237-3.037-25.882-0.216-51.768-0.134-77.652-0.134-32.772 0-65.544-0.006-98.316 0.013-2.198 0.002-4.395 0.179-7.416 0.313z"  horiz-adv-x="1024" />

    
    <glyph glyph-name="fanhui-3" unicode="&#58891;" d="M800.705 278.26l37.11 37.109-342.863 342.793-342.824-342.793 37.109-37.109 305.737 305.743z"  horiz-adv-x="1024" />

    
    <glyph glyph-name="anonymous-iconfont" unicode="&#58893;" d="M512.191 2.36c-209.871 0-380.009 171.321-380.009 382.668s170.138 382.659 380.009 382.659 379.993-171.312 379.993-382.659-170.123-382.668-379.993-382.668zM700.352 401.591c0 16.255-13.078 29.42-29.217 29.42h-116.935v117.752c0 16.255-13.078 29.438-29.217 29.438h-29.233c-16.137 0-29.234-13.183-29.234-29.438v-117.752h-116.919c-16.155 0-29.235-13.165-29.235-29.42v-29.438c0-16.255 13.080-29.438 29.235-29.438h116.919v-117.752c0-16.255 13.097-29.421 29.234-29.421h29.233c16.139 0 29.217 13.166 29.217 29.421v117.752h116.935c16.139 0 29.217 13.183 29.217 29.438v29.438z"  horiz-adv-x="1024" />

    
    <glyph glyph-name="pingjia" unicode="&#58932;" d="M194.9-1.26a72.24 72.24 0 0 0-25.49 4.67 70.82 70.82 0 0 0-46.26 66.81v494a80.39 80.39 0 0 0 80.3 80.3h617.11a80.39 80.39 0 0 0 80.3-80.3V176.1a80.39 80.39 0 0 0-80.3-80.3H463.11a26.77 26.77 0 1 0 0 53.53h357.45a26.8 26.8 0 0 1 26.77 26.77V564.21A26.8 26.8 0 0 1 820.56 591H203.44a26.8 26.8 0 0 1-26.77-26.77v-494a17.17 17.17 0 0 1 11.56-16.7c3.49-1.32 12.36-3.46 19.71 4.94l78.16 84.7a26.77 26.77 0 1 0 39.33-36.32l-77.69-84.18a70.05 70.05 0 0 0-52.85-23.92zM314.74 364.41z m-43.49 0a43.5 43.5 0 1 1 43.49 43.5 43.5 43.5 0 0 1-43.49-43.5M509.62 365.17z m-43.5 0a43.5 43.5 0 1 1 43.5 43.49 43.5 43.5 0 0 1-43.5-43.49M704.49 364.41z m-43.5 0a43.5 43.5 0 1 1 43.5 43.5 43.5 43.5 0 0 1-43.5-43.5"  horiz-adv-x="1024" />

    
    <glyph glyph-name="nv" unicode="&#58895;" d="M143.4624 351.488a384.5632 368.5376 90 1 1 737.0752 0 384.5632 368.5376 90 1 1-737.0752 0ZM423.5776 586.496c-79.2064-79.1552-79.2064-209.5104 0-290.9184 79.104-79.2064 209.408-79.2064 290.9184 0 79.104 79.104 79.104 209.408 0 290.9184a207.9744 207.9744 0 0 1-290.9184 0zM512 896C228.096 896 0 667.904 0 384s228.096-512 512-512 512 228.096 512 512S795.904 896 512 896z m237.4144-635.3408c-93.0816-93.0304-242.0736-100.0448-344.4736-16.2304l-37.2736-37.3248 90.7776-90.6752c9.3184-9.3696 9.3184-25.6 0-37.3248-9.3184-11.6224-25.6-9.3184-37.3248 0l-90.6752 90.7776-51.2-55.9104c-9.3184-9.3184-25.6-9.3184-37.3248 0-9.3184 9.3696-9.3184 25.6 0 37.3248L295.5776 204.8 204.8 295.5776c-9.3184 9.3184-9.3184 25.6 0 37.2224 9.3184 9.3184 25.6 9.3184 37.2224 0L332.8 242.0224l37.2224 37.3248a259.7888 259.7888 0 0 0 16.2816 344.4224 257.0752 257.0752 0 0 0 363.1104 0c100.0448-102.4512 100.0448-263.0656 0-363.1104z"  horiz-adv-x="1024" />

    
    <glyph glyph-name="jifen" unicode="&#58995;" d="M516.43904-99.30752c-104.59136 0-204.42112 33.41312-288.6912 96.63488-103.28576 77.16864-170.27584 190.15168-188.672 318.16192-18.36544 127.84128 14.11584 255.11424 91.4688 358.37952C222.68416 796.78976 363.96032 867.29728 518.144 867.29728c105.04192 0 205.0304-33.28 289.15712-96.24576 89.27232-66.91328 153.01632-163.26144 179.51744-271.32928l0.16896-0.70656a10.59328 10.59328 0 0 0-7.82336-12.7488c-0.8448-0.19968-1.74592-0.3072-2.62656-0.3072-4.10112 0-9.10848 2.5088-10.41408 8.0128-25.23648 103.5776-86.1696 195.87072-171.6224 260.01408C714.13248 814.07488 618.624 845.824 518.272 845.824c-145.23392 0-283.66336-69.0688-370.29888-184.76544C73.984 562.26304 42.9312 440.66304 60.53376 318.64832c17.64864-122.26048 81.64352-230.2464 180.20352-304.07168 80.45056-60.25728 176.04608-92.1088 276.44416-92.1088h0.03584c145.10592 0.01536 283.48928 69.13024 370.18112 184.88832 40.05376 53.5808 67.41504 113.39264 81.34144 177.80736 1.0496 4.82816 5.56544 8.49408 10.496 8.49408a10.88512 10.88512 0 0 0 8.97536-4.98176c0.90112-1.38752 2.28352-4.25984 1.4848-7.92576-14.6944-67.78368-43.37152-130.43712-85.22752-186.24512-77.3632-103.28064-190.42304-170.28096-318.3616-188.66176a470.36416 470.36416 0 0 0-69.66784-5.15072zM515.09248 171.33568a13.90592 13.90592 0 0 0-14.05952 14.0544v105.3184h-105.1136a14.01344 14.01344 0 0 0-14.04928 13.99808c0.01536 7.83872 6.28224 14.10048 13.97248 14.10048h105.18528V409.65632h-105.1136a14.01344 14.01344 0 0 0-14.04928 14.0032c0.01536 7.84896 6.28224 14.10048 13.96736 14.10048h125.39904l-0.21504 0.21504h112.80384a14.01344 14.01344 0 0 0 14.0544-13.99808c-0.01536-7.84384-6.28224-14.10048-13.97248-14.10048H529.152v-91.0592h104.67328a14.01344 14.01344 0 0 0 14.0544-13.99808c-0.01536-7.83872-6.28224-14.09536-13.96224-14.09536H529.152v-105.32864a13.91104 13.91104 0 0 0-14.05952-14.05952z m-129.4592 401.408a13.83936 13.83936 0 0 0 0.03584 19.59936 13.65504 13.65504 0 0 0 9.85088 4.1728c3.7632 0 7.3216-1.4848 10.01984-4.1728l108.61568-108.36992 112.51712 108.69248a14.336 14.336 0 0 0 9.95328 3.98848 13.5168 13.5168 0 0 0 9.82528-4.14208 13.83424 13.83424 0 0 0-0.30208-19.6608l-132.41856-127.63136-128.09728 127.52384z"  horiz-adv-x="1024" />

    
    <glyph glyph-name="config" unicode="&#59098;" d="M858.008 454.858l-95.422 15.785-0.26 0.865c-2.955 9.918-6.842 19.246-11.582 27.736l-0.439 0.797 56.586 78.648c2.432 3.379 2.074 7.954-0.865 10.895l-88.443 88.471c-1.522 1.528-3.628 2.473-5.955 2.473-0.008 0-0.015-0-0.023-0-1.77 0-3.474-0.563-4.931-1.607l-78.662-56.613-0.797 0.439c-8.449 4.754-17.777 8.655-27.723 11.582l-0.852 0.26-15.799 95.45c-0.688 4.094-4.176 7.062-8.324 7.062h-125.054c-0.006 0-0.013 0-0.020 0-4.17 0-7.631-3.033-8.3-7.013l-15.791-95.499-0.866-0.246c-10.125-2.886-19.494-7.295-28.093-11.609l-0.797-0.398-77.948 55.584c-1.456 1.016-3.159 1.564-4.891 1.564-0.006 0-0.013 0-0.020 0-2.323 0-4.424-0.945-5.942-2.473l-88.478-88.141c-2.94-2.939-3.318-7.528-0.886-10.881l55.885-77.947-0.412-0.77c-4.596-8.848-8.483-18.436-11.238-27.75l-0.261-0.879-95.45-15.785c-4.025-0.677-7.054-4.137-7.054-8.303 0-0.007 0-0.015 0-0.022l-0-125.054c-0-0.006-0-0.013-0-0.020 0-4.169 3.032-7.63 7.012-8.297l95.458-15.806 0.275-0.854c3.469-10.797 7.487-20.496 11.938-28.82l0.426-0.783-55.885-77.934c-2.418-3.381-2.040-7.969 0.893-10.881l88.464-88.471c1.518-1.528 3.619-2.473 5.942-2.473 0.007 0 0.014 0 0.021 0 0.012-0 0.028-0 0.043-0 1.833 0 3.527 0.598 4.896 1.61l78.228 56.199 0.769-0.385c7.748-3.711 17.035-7.914 27.091-10.881l0.879-0.275 15.784-95.436c0.674-4.036 4.14-7.074 8.316-7.074 0.004 0 0.007 0 0.011 0l125.054-0c4.148 0 7.637 2.98 8.324 7.088l15.785 95.395 0.838 0.275c10.496 3.379 19.811 7.281 28.52 11.965l0.77 0.426 78.648-56.6c1.358-0.995 3.062-1.592 4.906-1.592 0.009 0 0.019 0 0.028 0 0.005-0 0.012-0 0.020-0 2.322 0 4.423 0.946 5.939 2.473l88.471 88.471c2.928 2.926 3.299 7.5 0.881 10.879l-56.6 78.938 0.385 0.783c3.943 8.283 7.996 17.295 10.881 27.078l0.273 0.879 95.436 15.799c4.096 0.686 7.076 4.176 7.076 8.324v125.055c0 0.002 0 0.004 0 0.006 0 4.181-3.047 7.651-7.041 8.311zM731.113 305.735c-2.404-8.078-5.922-15.771-9.053-22.227-2.118-4.308-3.357-9.376-3.357-14.735 0-7.443 2.391-14.328 6.446-19.929l44.084-61.516-59.482-59.498-61.258 44.113c-5.811 4.203-12.68 6.416-19.865 6.416-5.918-0.009-11.479-1.531-16.32-4.2-6.689-3.578-14.203-6.708-22.791-9.484-12.156-3.928-21.045-14.219-23.174-26.844l-12.283-74.35h-84.129l-12.295 74.35c-2.143 12.764-11.512 23.383-23.904 27.051-7.803 2.293-15.318 5.699-22.269 9.053-4.63 2.184-9.713 3.352-14.699 3.352-7.103 0-13.972-2.227-19.824-6.402l-60.955-43.754-59.471 59.484 43.453 60.568c7.542 10.512 8.435 24.619 2.288 35.939-3.538 6.594-6.677 14.232-9.603 23.354-3.929 12.186-14.205 21.047-26.83 23.162l-74.349 12.295v84.13l74.355 12.296c12.749 2.143 23.368 11.512 27.050 23.902 2.211 7.447 5.295 15.057 8.915 22.008 5.936 11.402 4.946 25.004-2.541 35.499l-43.438 60.528 59.512 59.264 60.625-43.219c5.825-4.148 12.666-6.346 19.769-6.346 5.234 0 10.496 1.264 15.18 3.626 6.87 3.407 14.823 7.227 22.53 9.397 12.529 3.599 22.035 14.26 24.219 27.172l12.282 74.322h84.129l12.283-74.336c2.129-12.762 11.525-23.395 23.916-27.063 7.584-2.267 14.879-5.316 21.061-8.778 5.096-2.83 10.838-4.341 16.609-4.341 7.17 0 14.039 2.225 19.863 6.415l61.271 44.112 59.457-59.457-44.113-61.271c-7.678-10.647-8.488-24.976-2.074-36.487 3.49-6.209 6.527-13.477 8.779-21.047 3.668-12.363 14.273-21.76 27.049-23.902l74.35-12.296v-84.13l-74.336-12.295c-12.761-2.113-23.394-11.509-27.062-23.902zM511.997 524.386c-77.412 0-140.386-62.975-140.386-140.387 0-77.398 62.974-140.357 140.386-140.357 77.398 0 140.359 62.959 140.359 140.357-0.001 77.412-62.961 140.387-140.359 140.387zM511.997 276.2c-59.443 0-107.8 48.355-107.8 107.799s48.356 107.801 107.8 107.801c59.443 0 107.8-48.357 107.8-107.801s-48.358-107.799-107.8-107.799z"  horiz-adv-x="1024" />

    
    <glyph glyph-name="xiala1" unicode="&#58896;" d="M510.279-62.508c246.408 0 446.162 199.753 446.162 446.162s-199.753 446.162-446.162 446.162-446.162-199.753-446.162-446.162 199.753-446.162 446.162-446.162zM510.279 792.636c225.874 0 408.982-183.107 408.982-408.982s-183.107-408.982-408.982-408.982-408.982 183.107-408.982 408.982 183.107 408.982 408.982 408.982zM491.688 550.14v-370.977h37.181v364.101l141.431-141.432 26.291 26.291-189.751 189.751-189.751-189.751 26.29-26.291z"  horiz-adv-x="1024" />

    
    <glyph glyph-name="shanchu" unicode="&#59141;" d="M941.675 742.087l-71.606 71.644-358.050-358.087-358.069 358.087-71.625-71.644 358.050-358.106-358.050-358.031 71.644-71.681 358.050 358.106 358.069-358.106 71.606 71.681-358.069 358.031 358.050 358.106z"  horiz-adv-x="1024" />

    
    <glyph glyph-name="fanhui1" unicode="&#58897;" d="M196.538 571.682l-45.584-45.584 360.823-360.823 360.804 360.822-45.584 45.584-315.227-315.229z"  horiz-adv-x="1024" />

    
    <glyph glyph-name="shuangren" unicode="&#58931;" d="M986.112 8.637935a29.39871 29.39871 0 0 0-27.648 19.769807h-7.795613c-28.027871 157.134452-145.094194 276.546065-310.288516 276.546064v5.483355c-11.776 6.837677-19.736774 19.456-19.736774 34.039742s7.960774 27.169032 19.736774 34.023226V384c98.188387 0 158.026323 79.591226 158.026323 177.796129 0 98.204903-79.57471 177.779613-177.779613 177.779613V741.574194a29.39871 29.39871 0 0 0-19.736775 27.631483 29.39871 29.39871 0 0 0 19.736775 27.648v1.981936c2.642581 0 5.252129-0.313806 7.911225-0.396387 0.677161 0.049548 1.271742 0.396387 1.96542 0.396387 1.139613 0 2.163613-0.528516 3.270193-0.660645 124.795871-6.887226 223.925677-109.914839 223.925678-236.395355 0-93.068387-53.776516-173.35329-131.782194-212.18271 137.843613-38.069677 245.082839-148.876387 278.428903-288.55329 6.771613-5.41729 11.363097-13.427613 11.363097-22.775742a29.613419 29.613419 0 0 0-29.596903-29.629936z m-477.497806 321.23871c146.250323-40.381935 258.328774-162.584774 283.961806-314.285419 3.385806-4.839226 5.84671-10.421677 5.84671-16.81342 0-16.350968-13.278968-29.613419-29.629936-29.613419a29.415226 29.415226 0 0 0-27.648 19.736774h-4.492387C717.064258 155.747097 575.438452 285.233548 403.340387 285.233548c-172.081548 0-313.723871-129.486452-333.295484-296.315871h-4.508903a29.39871 29.39871 0 0 0-27.648-19.736774A29.679484 29.679484 0 0 0 8.258065-1.172645c0 6.35871 2.444387 11.941161 5.863225 16.780387 25.633032 151.750194 137.678452 273.903484 283.928775 314.318452-78.03871 38.812903-131.782194 119.08129-131.782194 212.149677 0 130.923355 106.132645 237.072516 237.056 237.072516s237.056-106.132645 237.056-237.072516c0-93.101419-53.710452-173.402839-131.765677-212.199226z m-105.273807 389.945807c-98.171871 0-177.796129-79.591226-177.796129-177.796129 0-98.204903 79.57471-177.796129 177.796129-177.796129s177.796129 79.591226 177.796129 177.796129c0.033032 98.204903-79.591226 177.796129-177.796129 177.796129z"  horiz-adv-x="1024" />

    
    <glyph glyph-name="xing" unicode="&#59390;" d="M711.378 578.899L511.998 881.341 312.619 578.899-0.002 490.551 187.57 218.644v-334.431l324.428 126.59 324.428-126.59V218.644l187.572 271.907z"  horiz-adv-x="1024" />

    
    <glyph glyph-name="jiazai" unicode="&#58960;" d="M512 128a42.666667 42.666667 0 0 1-42.666667-42.666667v-170.666666a42.666667 42.666667 0 0 1 85.333334 0v170.666666a42.666667 42.666667 0 0 1-42.666667 42.666667zM512 896a42.666667 42.666667 0 0 1-42.666667-42.666667v-170.666666a42.666667 42.666667 0 0 1 85.333334 0V853.333333a42.666667 42.666667 0 0 1-42.666667 42.666667zM256 384a42.666667 42.666667 0 0 1-42.666667 42.666667H42.666667a42.666667 42.666667 0 0 1 0-85.333334h170.666666a42.666667 42.666667 0 0 1 42.666667 42.666667zM981.333333 426.666667h-170.666666a42.666667 42.666667 0 0 1 0-85.333334h170.666666a42.666667 42.666667 0 0 1 0 85.333334zM210.304 746.026667a42.624 42.624 0 1 1-60.330667-60.330667l120.661334-120.661333a42.624 42.624 0 1 1 60.330666 60.330666L210.304 746.026667zM753.365333 202.965333a42.624 42.624 0 1 1-60.330666-60.330666l120.661333-120.661334a42.624 42.624 0 1 1 60.330667 60.330667l-120.661334 120.661333zM753.365333 565.034667l120.661334 120.661333a42.624 42.624 0 1 1-60.330667 60.330667l-120.661333-120.661334a42.624 42.624 0 1 1 60.330666-60.330666zM270.634667 202.965333l-120.661334-120.661333a42.624 42.624 0 1 1 60.330667-60.330667l120.661333 120.661334a42.624 42.624 0 1 1-60.330666 60.330666z"  horiz-adv-x="1024" />

    
    <glyph glyph-name="xing1" unicode="&#58904;" d="M515.072 7.68l-249.856-124.416c-46.08-21.504-86.528 2.56-81.408 57.856 11.776 109.056 32.768 268.288 32.768 268.288S87.552 354.816 14.336 442.368c-25.6 32.256-9.216 77.312 41.984 86.016 103.936 19.456 264.704 50.688 264.704 50.688s88.064 162.304 143.872 261.632C495.616 901.12 517.12 894.464 520.704 892.416c9.216-3.072 24.576-14.848 44.032-51.712C619.52 741.376 706.56 578.56 706.56 578.56s159.232-31.232 261.632-51.2c50.176-8.192 66.56-53.76 40.96-86.016C936.96 353.28 808.96 207.872 808.96 207.872s20.992-159.744 32.768-268.288c5.12-55.296-34.816-79.36-80.384-57.856-81.92 41.984-164.352 83.968-246.272 125.952"  horiz-adv-x="1024" />

    
    <glyph glyph-name="dingwei" unicode="&#58911;" d="M509.950786-6.12626a21.682033 21.682033 0 0 0-18.708688 10.623862l-249.760987 424.28632-0.634759 1.169293a304.016182 304.016182 0 0 0-42.328407 154.613944 311.432841 311.432841 0 0 0 622.832273 0 304.016182 304.016182 0 0 0-42.328407-154.647352l-0.60135-1.135885-249.794395-424.28632a21.648625 21.648625 0 0 0-18.67528-10.623862z m-230.517765 454.988614l230.517765-391.212033 230.517764 391.245441a16.136244 16.136244 0 0 0 0.701576 1.302926 261.453917 261.453917 0 0 1 37.083293 134.234838 268.202408 268.202408 0 0 1-536.371407 0 261.788 261.788 0 0 1 37.083292-134.234838 13.363349 13.363349 0 0 0 0.601351-1.336334z m230.517765 16.336693a130.092199 130.092199 0 1 0 131.829434 130.058791 131.09445 131.09445 0 0 0-131.829434-130.058791z m0 217.4885a87.429709 87.429709 0 1 1 88.599001-87.429709 88.131284 88.131284 0 0 1-88.599001 87.429709z m0-810.353463c-209.06959 0-431.235261 56.794232-431.235262 162.064011 0 50.88095 54.255196 95.481126 152.743076 125.582069a21.715442 21.715442 0 0 0 27.060781-14.064925 21.281133 21.281133 0 0 0-14.265375-26.726697c-75.436103-23.051776-122.308049-55.59153-122.308049-84.857264 0-56.359923 165.939382-119.434929 388.004829-119.434929s387.97142 63.075006 387.97142 119.434929c0 28.063032-43.865192 59.633943-114.49049 82.385044a21.281133 21.281133 0 0 0-13.831066 26.89374 21.715442 21.715442 0 0 0 27.261232 13.664024c93.042315-30.067535 144.290757-73.498418 144.290757-122.942808 0-105.202962-222.165672-161.997194-431.201853-161.997194z"  horiz-adv-x="1024" />

    


  </font>
</defs>
</svg>
